<?xml version="1.0" encoding="UTF-8" standalone="no"?>
<!-- Generator: Adobe Illustrator 14.0.0, SVG Export Plug-In . SVG Version: 6.00 Build 43363)  -->
<svg
   xmlns:dc="http://purl.org/dc/elements/1.1/"
   xmlns:cc="http://web.resource.org/cc/"
   xmlns:rdf="http://www.w3.org/1999/02/22-rdf-syntax-ns#"
   xmlns:svg="http://www.w3.org/2000/svg"
   xmlns="http://www.w3.org/2000/svg"
   xmlns:xlink="http://www.w3.org/1999/xlink"
   xmlns:sodipodi="http://sodipodi.sourceforge.net/DTD/sodipodi-0.dtd"
   xmlns:inkscape="http://www.inkscape.org/namespaces/inkscape"
   version="1.0"
   id="Layer_1"
   x="0px"
   y="0px"
   width="633"
   height="266"
   viewBox="0 0 595.276 841.89"
   enable-background="new 0 0 595.276 841.89"
   xml:space="preserve"
   sodipodi:version="0.32"
   inkscape:version="0.45.1">
<path
   style="fill:#b4975a"
   id="path265"
   d="M 302.125,777.434 L 302.072,777.382 L 301.016,776.321 L 299.91,777.433 L 301.016,778.542 L 302.125,777.434 z M 304.556,777.434 L 304.503,777.381 L 303.447,776.321 L 302.34,777.432 L 303.448,778.542 L 304.556,777.434 z M 299.384,787.007 C 299.384,786.997 299.372,787.098 299.372,787.247 C 299.374,787.627 299.443,788.363 300.056,788.61 C 300.056,788.608 300.273,788.724 300.589,788.727 C 300.793,788.727 301.037,788.674 301.286,788.515 L 301.374,788.459 L 301.291,788.395 C 300.929,788.125 300.858,787.348 300.863,786.934 C 300.861,786.849 300.864,786.782 300.866,786.736 L 304.698,786.736 L 304.688,784.903 L 304.688,782.735 L 304.692,782.735 L 304.692,778.571 L 304.554,778.813 C 304.552,778.814 304.368,779.139 303.556,779.868 C 303.07,780.304 302.813,780.464 302.678,780.532 C 302.57,780.582 302.476,780.607 302.48,780.723 C 302.48,780.756 302.483,780.792 302.483,780.852 C 302.549,781.361 303.261,781.152 303.298,781.93 C 303.325,782.304 303.325,784.509 303.325,784.511 L 303.33,785.318 L 300.877,785.318 C 300.879,785.26 300.881,785.172 300.881,785.063 C 300.881,785.011 300.88,784.959 300.88,784.906 C 300.87,784.001 300.574,782.111 298.375,782.112 C 298.337,782.112 298.297,782.111 298.257,782.113 C 297.544,782.134 296.92,782.15 296.381,782.15 C 294.937,782.156 294.132,782.019 293.928,781.631 L 293.89,781.564 L 293.823,781.606 C 293.569,781.77 293.465,782.075 293.465,782.384 C 293.467,782.9 293.749,783.474 294.246,783.515 C 294.59,783.532 295.085,783.536 295.581,783.536 C 296.47,783.536 297.361,783.518 297.362,783.518 C 299.426,783.537 299.366,784.472 299.383,784.799 L 299.383,785.317 L 290.512,785.317 L 290.533,784.27 L 290.517,774.696 L 290.381,774.926 C 290.379,774.927 290.188,775.254 289.339,775.982 C 288.835,776.417 288.567,776.578 288.427,776.646 C 288.311,776.699 288.218,776.72 288.218,776.84 C 288.218,776.871 288.222,776.906 288.222,776.967 C 288.292,777.479 289.032,777.269 289.072,778.047 C 289.115,778.625 289.122,782.149 289.122,784.149 C 289.122,784.971 289.12,785.538 289.12,785.539 L 289.134,786.735 L 299.383,786.735 L 299.383,787.007 L 299.384,787.007 z M 282.668,788.08 C 282.673,788.112 283.029,789.378 284.781,789.375 C 284.816,789.375 284.85,789.374 284.884,789.374 C 286.725,789.324 287.19,788.018 287.19,788.006 L 287.195,782.757 C 287.195,782.759 287.196,782.736 287.196,782.694 C 287.195,782.445 287.142,781.472 286.244,781.463 L 278.151,781.463 L 278.161,781.26 C 278.194,780.474 278.754,780.684 278.808,780.183 C 278.808,780.122 278.809,780.087 278.809,780.061 C 278.808,780.044 278.813,780.028 278.793,779.994 C 278.677,779.908 278.719,779.984 278.598,779.91 C 278.491,779.85 278.292,779.698 277.96,779.319 C 277.31,778.586 277.154,778.469 277.144,778.463 L 277.026,778.374 L 277.026,781.024 L 277.03,781.024 L 277.03,782.783 L 284.982,782.783 C 284.991,782.782 285.019,782.779 285.071,782.779 C 285.277,782.788 285.728,782.825 285.731,783.442 L 285.731,787.152 C 285.728,787.154 285.736,788.029 284.858,788.03 C 284.406,788.03 284.089,787.85 283.885,787.671 C 283.68,787.492 283.589,787.312 283.588,787.315 L 283.595,785.223 L 277.026,785.223 L 277.026,786.739 L 282.668,786.739 L 282.668,788.08 L 282.668,788.08 z M 315.612,786.661 C 315.612,786.654 315.583,783.175 315.583,780.605 C 315.583,779.32 315.59,778.261 315.612,777.993 C 315.652,777.214 316.394,777.423 316.463,776.912 C 316.463,776.851 316.464,776.815 316.464,776.784 C 316.465,776.666 316.372,776.642 316.256,776.591 C 316.116,776.524 315.847,776.364 315.341,775.928 C 314.494,775.199 314.303,774.87 314.299,774.872 L 314.162,774.646 L 314.162,786.736 L 315.613,786.736 L 315.612,786.661 z M 310.361,788.479 L 309.166,789.677 L 307.97,788.478 L 309.166,787.28 L 310.361,788.479 z M 306.643,788.478 L 309.165,791.009 L 311.685,788.478 L 310.061,786.847 L 312.055,784.743 L 312.055,774.966 L 311.913,774.934 C 311.913,774.937 311.758,775.262 311.083,775.993 C 310.676,776.429 310.461,776.588 310.351,776.654 C 310.263,776.7 310.175,776.736 310.182,776.844 C 310.182,776.875 310.184,776.91 310.184,776.968 C 310.242,777.472 310.833,777.26 310.868,778.047 C 310.885,778.319 310.889,779.091 310.889,779.995 C 310.889,781.686 310.871,783.844 310.869,784.122 L 309.173,785.891 L 307.465,784.122 C 307.462,783.843 307.443,781.686 307.444,779.995 C 307.442,779.091 307.447,778.319 307.465,778.047 C 307.499,777.26 308.088,777.471 308.144,776.968 C 308.144,776.909 308.147,776.873 308.147,776.843 C 308.153,776.734 308.067,776.699 307.977,776.654 C 307.869,776.586 307.655,776.426 307.25,775.993 C 306.571,775.263 306.423,774.933 306.42,774.934 L 306.278,774.966 L 306.278,784.893 L 308.266,786.85 L 306.643,788.478 z M 292.588,805.731 L 292.556,795.098 L 292.593,794.965 C 292.608,794.946 292.65,794.908 292.708,794.878 L 293.044,794.668 L 293.079,794.647 L 293.079,794.413 L 289.342,794.413 L 289.342,794.646 L 289.697,794.875 C 289.755,794.915 289.793,794.956 289.807,794.982 L 289.837,805.575 L 289.788,805.743 C 289.768,805.773 289.732,805.81 289.695,805.836 L 289.375,806.045 L 289.342,806.067 L 289.342,806.296 L 293.079,806.296 L 293.079,806.066 L 292.714,805.836 C 292.641,805.792 292.599,805.751 292.588,805.731 M 302.246,804.885 L 302.375,804.746 L 305.029,801.901 L 304.991,795.097 L 305.012,794.965 L 305.12,794.866 L 305.453,794.667 L 305.489,794.647 L 305.489,794.412 L 301.74,794.412 L 301.74,794.645 L 302.109,794.874 C 302.23,794.95 302.269,795.015 302.271,795.093 L 302.271,798.704 L 294.331,798.704 L 292.658,800.827 L 292.911,800.909 L 292.943,800.918 L 293.458,800.614 C 293.57,800.551 293.656,800.51 293.715,800.494 C 293.77,800.476 293.852,800.466 293.957,800.466 L 302.271,800.466 L 302.246,804.885 z M 305.799,806.028 C 305.632,805.998 305.57,805.952 305.554,805.91 L 312.858,798.302 L 311.298,796.641 L 302.062,806.305 L 306.084,806.305 L 306.084,806.045 L 306.01,806.045 C 305.925,806.044 305.849,806.038 305.799,806.028 M 343.453,799.064 L 343.381,799.085 L 343.453,799.064 C 343.002,797.632 341.976,796.473 340.384,795.592 C 338.946,794.792 336.868,794.401 334.155,794.4 L 323.652,794.4 L 323.652,794.63 L 324.005,794.86 C 324.064,794.9 324.098,794.936 324.113,794.964 L 324.111,796.136 L 329.27,796.136 L 329.27,796.14 L 334.138,796.14 C 336.202,796.14 337.699,796.413 338.618,796.951 C 340.078,797.805 340.796,798.93 340.8,800.354 C 340.8,801.092 340.61,801.741 340.232,802.32 C 339.854,802.894 339.285,803.382 338.52,803.779 C 337.541,804.286 336.052,804.549 334.054,804.549 L 328.714,804.549 L 328.714,796.775 L 325.966,796.775 L 325.992,805.586 L 325.945,805.74 C 325.924,805.767 325.891,805.801 325.851,805.833 L 325.533,806.037 L 325.501,806.058 L 325.501,806.291 L 334.067,806.291 C 335.735,806.291 337.018,806.196 337.932,806.008 C 339.169,805.752 340.264,805.308 341.214,804.671 C 342.159,804.035 342.835,803.303 343.232,802.476 C 343.525,801.869 343.666,801.213 343.666,800.516 C 343.666,800.007 343.593,799.522 343.453,799.064 M 311.843,796.069 L 313.646,797.986 L 315.691,800.039 L 312.309,800.041 L 310.638,801.875 L 310.846,801.983 L 310.88,802.003 L 311.277,801.793 C 311.325,801.769 311.373,801.753 311.407,801.748 C 311.446,801.741 311.627,801.74 311.919,801.741 L 317.292,801.741 L 321.048,805.718 C 321.08,805.737 321.091,805.743 321.109,805.787 L 321.151,805.911 C 321.146,805.961 321.046,806.045 320.687,806.045 L 320.612,806.045 L 320.612,806.305 L 324.684,806.305 L 313.413,794.43 L 311.843,796.069 z M 284.404,794.646 L 284.757,794.875 C 284.883,794.958 284.926,795.034 284.926,795.098 L 284.926,805.573 L 284.876,805.743 C 284.841,805.778 284.795,805.813 284.761,805.835 L 284.438,806.045 L 284.404,806.067 L 284.404,806.297 L 288.114,806.297 L 288.114,806.068 L 287.786,805.836 C 287.72,805.79 287.683,805.748 287.679,805.735 L 287.646,795.098 L 287.692,794.952 L 287.794,794.866 L 288.083,794.667 L 288.114,794.644 L 288.114,794.414 L 284.404,794.414 L 284.404,794.646 L 284.404,794.646 z M 268.153,804.417 C 268.041,804.482 267.949,804.523 267.889,804.537 L 259.258,804.56 C 257.253,804.56 255.756,804.299 254.766,803.793 C 253.256,803.009 252.516,801.879 252.514,800.368 C 252.514,799.672 252.708,799.025 253.101,798.43 C 253.844,797.33 254.984,796.635 256.54,796.346 C 256.972,796.269 257.315,796.221 257.57,796.196 C 258.039,796.17 258.569,796.16 259.157,796.16 L 261.832,796.16 C 262.117,796.189 262.198,796.269 262.195,796.317 L 262.195,796.349 L 262.172,796.485 L 262.158,796.571 L 262.406,796.571 L 264.185,794.418 L 259.164,794.418 C 257.932,794.419 256.989,794.458 256.325,794.543 C 255.959,794.588 255.624,794.645 255.322,794.718 C 254.477,794.906 253.641,795.23 252.823,795.693 C 251.537,796.418 250.624,797.335 250.089,798.44 C 249.791,799.064 249.646,799.754 249.647,800.511 C 249.645,802.429 250.677,803.951 252.712,805.05 C 253.65,805.564 254.682,805.909 255.802,806.093 C 256.653,806.234 257.807,806.3 259.264,806.3 L 267.253,806.3 L 269.047,804.12 L 268.656,804.12 L 268.153,804.417 z M 264.498,801.003 L 264.483,801.089 L 264.756,801.089 L 266.508,798.903 L 254.117,798.903 L 252.947,800.645 L 264.162,800.645 C 264.441,800.677 264.528,800.756 264.521,800.805 L 264.521,800.838 L 264.498,801.003 z M 263.875,796.503 L 264.126,796.588 L 264.154,796.598 L 264.666,796.337 C 264.838,796.228 265.002,796.173 265.167,796.173 L 272.192,796.173 L 272.192,805.587 L 272.147,805.743 C 272.114,805.782 272.072,805.819 272.047,805.831 L 271.719,806.044 L 271.685,806.067 L 271.685,806.296 L 275.422,806.296 L 275.422,806.065 L 275.04,805.834 L 274.92,805.724 C 274.927,805.728 274.915,805.669 274.917,805.587 L 274.917,796.173 L 281.165,796.173 C 281.428,796.204 281.507,796.277 281.5,796.337 L 281.5,796.591 L 281.734,796.591 L 283.526,794.413 L 265.542,794.413 L 263.875,796.503 z "
   clip-path="url(#SVGID_20_)"
   transform="matrix(21.308816,0,0,21.308816,-6023.7664,-16506.789)" /><path
   style="fill:#b4975a"
   id="path267"
   d="M 271.734,812.159 L 271.217,810.826 L 270.722,812.159 L 271.734,812.159 z M 270.614,812.504 L 270.512,812.796 C 270.167,813.79 270.402,813.808 271.027,813.884 L 271.027,814.043 L 269.246,814.043 L 269.246,813.884 C 269.555,813.787 269.687,813.776 269.816,813.471 L 271.087,810.504 L 271.027,810.332 C 271.25,810.25 271.435,810.08 271.569,809.888 L 271.679,809.888 L 272.751,812.693 C 273.123,813.63 273.081,813.699 273.672,813.884 L 273.672,814.043 L 271.722,814.043 L 271.722,813.884 C 272.282,813.787 272.314,813.68 272,812.865 L 271.864,812.504 L 270.614,812.504 z "
   clip-path="url(#SVGID_20_)"
   transform="matrix(21.308816,0,0,21.308816,-6023.7664,-16506.789)" /><path
   style="fill:#b4975a"
   id="path269"
   d="M 280.166,812.771 C 280.166,813.807 280.24,813.768 280.925,813.885 L 280.925,814.043 L 278.656,814.043 L 278.656,813.885 C 279.336,813.768 279.411,813.807 279.411,812.771 L 279.411,811.411 C 279.411,810.372 279.336,810.414 278.656,810.299 L 278.656,810.137 L 280.925,810.137 L 280.925,810.299 C 280.24,810.414 280.166,810.372 280.166,811.411 L 280.166,812.771 z "
   clip-path="url(#SVGID_20_)"
   transform="matrix(21.308816,0,0,21.308816,-6023.7664,-16506.789)" /><path
   style="fill:#b4975a"
   id="path271"
   d="M 287.531,811.992 C 288.064,811.954 288.597,811.724 288.597,811.101 C 288.597,810.509 288.045,810.349 287.531,810.349 L 287.531,811.992 z M 286.774,811.239 C 286.774,810.468 286.737,810.353 286.018,810.3 L 286.018,810.137 L 287.802,810.137 C 288.504,810.137 289.453,810.137 289.453,811.051 C 289.453,811.505 289.114,811.839 288.709,811.992 C 289.136,812.829 289.726,813.729 290.67,813.954 L 290.648,814.112 C 290.136,814.086 289.548,814.138 289.1,813.824 C 288.809,813.619 288.477,813.079 288.305,812.758 C 288.037,812.24 288.076,812.273 287.531,812.194 L 287.531,812.772 C 287.531,813.554 287.497,813.815 288.419,813.886 L 288.419,814.046 L 286.018,814.046 L 286.018,813.886 C 286.7,813.769 286.774,813.809 286.774,812.772 L 286.774,811.239 L 286.774,811.239 z "
   clip-path="url(#SVGID_20_)"
   transform="matrix(21.308816,0,0,21.308816,-6023.7664,-16506.789)" /><path
   style="fill:#b4975a"
   id="path273"
   d="M 295.81,814.154 L 295.58,814.108 L 294.632,811.08 C 294.507,810.684 294.457,810.4 293.986,810.3 L 293.986,810.137 L 295.779,810.137 L 295.779,810.3 C 295.178,810.442 295.262,810.585 295.469,811.254 L 295.966,812.893 L 295.977,812.893 L 296.702,810.841 C 296.593,810.498 296.426,810.38 296.083,810.3 L 296.083,810.137 L 297.92,810.137 L 297.92,810.3 C 297.439,810.43 297.337,810.437 297.572,811.189 L 298.113,812.95 L 298.121,812.95 L 298.318,812.322 C 298.422,811.989 298.76,810.974 298.76,810.688 C 298.76,810.38 298.493,810.38 298.259,810.3 L 298.259,810.137 L 299.811,810.137 L 299.811,810.3 C 299.3,810.454 299.237,810.569 298.988,811.274 L 297.962,814.155 L 297.727,814.109 L 296.844,811.25 L 296.831,811.25 L 295.81,814.154 z "
   clip-path="url(#SVGID_20_)"
   transform="matrix(21.308816,0,0,21.308816,-6023.7664,-16506.789)" /><path
   style="fill:#b4975a"
   id="path275"
   d="M 305.729,812.159 L 305.207,810.826 L 304.719,812.159 L 305.729,812.159 z M 304.606,812.504 L 304.503,812.796 C 304.161,813.79 304.398,813.808 305.019,813.884 L 305.019,814.043 L 303.238,814.043 L 303.238,813.884 C 303.549,813.787 303.678,813.776 303.814,813.471 L 305.078,810.504 L 305.019,810.332 C 305.243,810.25 305.426,810.08 305.565,809.888 L 305.676,809.888 L 306.746,812.693 C 307.116,813.63 307.076,813.699 307.665,813.884 L 307.665,814.043 L 305.721,814.043 L 305.721,813.884 C 306.273,813.787 306.309,813.68 305.993,812.865 L 305.855,812.504 L 304.606,812.504 z "
   clip-path="url(#SVGID_20_)"
   transform="matrix(21.308816,0,0,21.308816,-6023.7664,-16506.789)" /><path
   style="fill:#b4975a"
   id="path277"
   d="M 314.334,812.771 C 314.334,813.552 314.297,813.814 315.164,813.885 L 315.164,814.043 L 312.745,814.043 L 312.745,813.885 C 313.501,813.768 313.578,813.807 313.578,812.771 L 313.578,812.504 L 312.933,811.202 C 312.677,810.676 312.602,810.43 311.967,810.298 L 311.967,810.136 L 313.952,810.136 L 313.952,810.298 C 313.555,810.401 313.363,810.354 313.694,811.055 L 314.193,812.108 L 314.503,811.474 C 314.99,810.481 314.886,810.43 314.373,810.298 L 314.373,810.136 L 316.042,810.136 L 316.042,810.298 C 315.557,810.401 315.324,810.521 315.087,810.951 L 314.434,812.164 L 314.333,812.382 L 314.333,812.771 L 314.334,812.771 z "
   clip-path="url(#SVGID_20_)"
   transform="matrix(21.308816,0,0,21.308816,-6023.7664,-16506.789)" /><path
   style="fill:#b4975a"
   id="path279"
   d="M 323.786,811.3 L 323.615,811.3 C 323.504,810.826 323.368,810.304 322.779,810.304 C 322.429,810.304 322.194,810.562 322.194,810.902 C 322.194,811.835 324.078,811.769 324.078,812.971 C 324.078,813.799 323.288,814.144 322.558,814.144 C 322.147,814.144 321.744,814.036 321.391,813.849 L 321.203,812.712 L 321.379,812.677 C 321.569,813.24 321.989,813.879 322.664,813.879 C 323.045,813.879 323.323,813.63 323.323,813.255 C 323.323,812.287 321.437,812.366 321.437,811.23 C 321.437,810.466 322.166,810.04 322.864,810.04 C 323.211,810.04 323.545,810.126 323.835,810.299 L 323.786,811.3 z "
   clip-path="url(#SVGID_20_)"
   transform="matrix(21.308816,0,0,21.308816,-6023.7664,-16506.789)" />
</svg>